# xmcd CD database file
#
# Track frame offsets:
#	150
#	12012
#	26722
#	39409
#	51244
#	62744
#	76984
#	87967
#	99110
#	110265
#	122330
#	135365
#	147015
#	158625
#	169355
#	179960
#	189233
#	200813
#
# Disc length: 2830 seconds
#
# Revision: 0
# Processed by: cddbd v1.5.1PL0 Copyright (c) Steve Scherf et al.
# Submitted via: CDex 1.51
#
DISCID=e70b0c12
DTITLE=Patsy Cline - Honky Tonk Angel
DYEAR=2001
DGENRE=Country
TTITLE0=Walkin' After Midnight
TTITLE1=Then You'll Know
TTITLE2=A Poor Man's Roses
TTITLE3=That Wonderful Someone
TTITLE4=I Can't Forget
TTITLE5=A Church, A Courtroon And Then Goodbye
TTITLE6=Stop The World (And Let Me Get Off)
TTITLE7=I Cried All The Way To The Altar
TTITLE8=Honky Tonk Merry Go Round
TTITLE9=I've Loved And Lost Again
TTITLE10=Fingerprints
TTITLE11=Dear God
TTITLE12=Hungry For Love
TTITLE13=He Will Do For You
TTITLE14=Three Cigarettes (In a Ashtray)
TTITLE15=Try Again
TTITLE16=Hidin' Out
TTITLE17=A Stranger In My Arms
EXTD=YEAR: 2001
EXTT0=
EXTT1=
EXTT2=
EXTT3=
EXTT4=
EXTT5=
EXTT6=
EXTT7=
EXTT8=
EXTT9=
EXTT10=
EXTT11=
EXTT12=
EXTT13=
EXTT14=
EXTT15=
EXTT16=
EXTT17=
PLAYORDER=
